HIERARCHY
ROOT Hips
{
	OFFSET 0.000000 0.000000 0.000000
	CHANNELS 6 Xposition Yposition Zposition Zrotation Yrotation Xrotation 
	JOINT LeftUpLeg_virtual
	{
		OFFSET 0.000000 0.000000 0.000000
		CHANNELS 3 Zrotation Yrotation Xrotation
		JOINT LeftUpLeg
		{
			OFFSET 10.205400 -3.823500 0.155100
			CHANNELS 3 Zrotation Yrotation Xrotation
			JOINT LeftLeg
			{
				OFFSET 0.708757 -12.982077 0.567790
				CHANNELS 3 Zrotation Yrotation Xrotation
				JOINT LeftFoot
				{
					OFFSET -0.708756 -10.717838 -2.184338
					CHANNELS 3 Zrotation Yrotation Xrotation
					JOINT LeftToeBase
					{
						OFFSET 0.108149 -7.191104 7.560241
						CHANNELS 3 Zrotation Yrotation Xrotation
						End Site
						{
							OFFSET 0.000000 0.000000 0.000000
						}
					}
				}
			}
		}
	}
	JOINT RightUpLeg_virtual
	{
		OFFSET 0.000000 0.000000 0.000000
		CHANNELS 3 Zrotation Yrotation Xrotation
		JOINT RightUpLeg
		{
			OFFSET -10.205400 -3.823500 0.005500
			CHANNELS 3 Zrotation Yrotation Xrotation
			JOINT RightLeg
			{
				OFFSET -0.708756 -12.982134 0.610632
				CHANNELS 3 Zrotation Yrotation Xrotation
				JOINT RightFoot
				{
					OFFSET 0.708754 -10.717769 -1.945823
					CHANNELS 3 Zrotation Yrotation Xrotation
					JOINT RightToeBase
					{
						OFFSET -0.108140 -7.191069 7.372968
						CHANNELS 3 Zrotation Yrotation Xrotation
						End Site
						{
							OFFSET 0.000000 0.000000 0.000000
						}
					}
				}
			}
		}
	}
	JOINT Spine_virtual
	{
		OFFSET 0.000000 0.000000 0.000000
		CHANNELS 3 Zrotation Yrotation Xrotation
		JOINT Spine
		{
			OFFSET 0.000000 6.876099 0.125700
			CHANNELS 3 Zrotation Yrotation Xrotation
			JOINT Spine1
			{
				OFFSET 0.000000 8.022060 0.146608
				CHANNELS 3 Zrotation Yrotation Xrotation
				JOINT Spine2
				{
					OFFSET 0.000000 9.168068 0.167552
					CHANNELS 3 Zrotation Yrotation Xrotation
					JOINT Neck_virtual
					{
						OFFSET 0.000000 0.000000 0.000000
						CHANNELS 3 Zrotation Yrotation Xrotation
						JOINT Neck
						{
							OFFSET 0.000000 10.314075 0.188496
							CHANNELS 3 Zrotation Yrotation Xrotation
							JOINT Head
							{
								OFFSET 0.000000 7.643700 -2.377400
								CHANNELS 3 Zrotation Yrotation Xrotation
								End Site
								{
									OFFSET 0.000000 0.000000 0.000000
								}
							}
						}
					}
					JOINT LeftShoulder_virtual
					{
						OFFSET 0.000000 0.000000 0.000000
						CHANNELS 3 Zrotation Yrotation Xrotation
						JOINT LeftShoulder
						{
							OFFSET 4.392200 8.824978 0.174984
							CHANNELS 3 Zrotation Yrotation Xrotation
							JOINT LeftArm
							{
								OFFSET 8.771219 -2.981674 -0.026999
								CHANNELS 3 Zrotation Yrotation Xrotation
								JOINT LeftForeArm
								{
									OFFSET 8.512804 0.000000 -0.000000
									CHANNELS 3 Zrotation Yrotation Xrotation
									JOINT LeftHand
									{
										OFFSET 18.484802 0.000000 -0.000000
										CHANNELS 3 Zrotation Yrotation Xrotation
										End Site
										{
											OFFSET 0.000000 0.000000 0.000000
										}
									}
								}
							}
						}
					}
					JOINT RightShoulder_virtual
					{
						OFFSET 0.000000 0.000000 0.000000
						CHANNELS 3 Zrotation Yrotation Xrotation
						JOINT RightShoulder
						{
							OFFSET -4.392200 8.824993 0.141379
							CHANNELS 3 Zrotation Yrotation Xrotation
							JOINT RightArm
							{
								OFFSET -8.771282 -2.981682 -0.094208
								CHANNELS 3 Zrotation Yrotation Xrotation
								JOINT RightForeArm
								{
									OFFSET -8.494598 0.000000 0.000000
									CHANNELS 3 Zrotation Yrotation Xrotation
									JOINT RightHand
									{
										OFFSET -18.483803 0.000000 0.000001
										CHANNELS 3 Zrotation Yrotation Xrotation
										End Site
										{
											OFFSET 0.000000 0.000000 0.000000
										}
									}
								}
							}
						}
					}
				}
			}
		}
	}
}
MOTION
Frames: 10
Frame Time: 0.033333
-3.272867 36.141941 0.308506 179.902538 -2.686901 179.912893 -0.394571 -2.670758 16.049090 -2.148318 -5.458172 -15.029953 2.756285 2.573827 13.384378 1.114900 -0.049574 5.488066 0.000000 0.000000 0.000000 4.887212 -1.708771 16.055159 -4.931401 7.544976 -17.710221 -4.257477 6.504317 18.173272 13.129641 1.541399 2.534395 0.000000 0.000000 0.000000 2.018290 0.688838 2.392509 1.645526 -0.905216 -15.871340 -0.518510 -3.030039 7.794001 0.031985 0.007105 -0.013178 -0.969719 -0.635795 9.393554 -1.185713 3.506885 22.487969 0.000000 0.000000 0.000000 0.720712 -0.119831 6.300527 -18.228598 -6.609572 1.854652 -43.367962 12.977201 19.851226 0.931794 -43.191596 3.348902 0.000000 0.000000 0.000000 -3.456280 0.910130 5.728648 26.624904 5.279711 5.958401 46.038695 -18.840040 15.025346 -4.017429 36.222822 -2.731879 0.000000 0.000000 0.000000 
-3.279865 36.142311 0.331209 179.913057 -2.686061 179.937741 -0.381713 -2.708392 16.031108 -2.219805 -5.251125 -15.017513 2.656760 2.867059 13.469145 1.158283 -0.034578 5.474656 0.000000 0.000000 0.000000 4.908562 -1.782533 15.979475 -4.973984 7.556424 -17.785673 -4.185464 6.651250 17.904395 13.254493 1.653936 2.513342 0.000000 0.000000 0.000000 2.027479 0.680781 2.379147 1.696096 -0.909003 -15.836576 -0.584907 -3.038740 7.793948 -0.015854 0.002761 -0.014347 -0.904819 -0.822647 9.408505 -1.191406 3.403682 22.454209 0.000000 0.000000 0.000000 0.830612 -0.114085 6.302500 -18.233617 -6.598864 1.885093 -43.415196 12.981674 19.899505 1.000441 -43.195551 3.269377 0.000000 0.000000 0.000000 -3.374341 0.931580 5.748167 26.626651 5.310837 5.951658 46.032080 -18.830973 15.009030 -4.013190 36.208916 -2.736740 0.000000 0.000000 0.000000 
-3.289505 36.144344 0.354925 179.963095 -2.620645 179.958259 -0.332138 -2.647371 15.998747 -2.258879 -5.363685 -15.035147 2.705631 3.064851 13.421788 1.109580 -0.090460 5.550925 0.000000 0.000000 0.000000 4.948723 -1.741509 15.938998 -4.985091 7.582266 -17.792009 -4.203766 6.729863 17.837464 13.248592 1.628163 2.554035 0.000000 0.000000 0.000000 2.064759 0.684020 2.368799 1.714146 -0.879525 -15.803506 -0.558532 -3.030933 7.805724 0.023078 0.019279 -0.032896 -0.957921 -0.751879 9.432466 -1.169554 3.391706 22.409694 0.000000 0.000000 0.000000 0.775288 -0.071951 6.339907 -18.246287 -6.593162 1.824491 -43.434580 12.998347 19.966405 0.964060 -43.205564 3.338678 0.000000 0.000000 0.000000 -3.425860 0.943279 5.750730 26.639968 5.365887 5.941650 46.074718 -18.843901 14.975400 -4.065709 36.170401 -2.774286 0.000000 0.000000 0.000000 
-3.293599 36.145683 0.378641 179.956210 -2.602800 179.908180 -0.328992 -2.606362 15.983288 -2.243076 -5.305913 -15.003388 2.704156 3.062173 13.433696 1.110215 -0.094534 5.573155 0.000000 0.000000 0.000000 4.937522 -1.796771 15.931350 -4.989351 7.651224 -17.782853 -4.228035 6.805084 17.841820 13.270465 1.640260 2.570404 0.000000 0.000000 0.000000 2.064502 0.540425 2.421521 1.697916 -0.823414 -15.704323 -0.534175 -2.980230 7.809517 0.019667 0.063283 -0.038974 -0.923771 -0.767343 9.441443 -1.137263 3.375323 22.365429 0.000000 0.000000 0.000000 0.804371 -0.132151 6.331912 -18.263412 -6.581219 1.979329 -43.532009 12.932727 19.848835 1.037008 -43.197733 3.280066 0.000000 0.000000 0.000000 -3.399301 0.893594 5.756057 26.641902 5.431018 5.966625 46.103914 -18.856709 14.910151 -4.096577 36.063850 -2.811926 0.000000 0.000000 0.000000 
-3.294334 36.148243 0.397626 179.945992 -2.604757 179.945541 -0.335099 -2.648198 15.936358 -2.253183 -5.326520 -14.990582 2.705815 3.123285 13.356394 1.100797 -0.098612 5.627100 0.000000 0.000000 0.000000 4.934830 -1.836762 15.876725 -4.998809 7.660832 -17.800620 -4.234554 6.838911 17.806600 13.285109 1.657258 2.615259 0.000000 0.000000 0.000000 2.060957 0.651127 2.391200 1.680694 -0.860571 -15.635439 -0.513524 -3.031719 7.814726 0.020167 0.015902 -0.039135 -0.905728 -0.772860 9.448941 -1.085221 3.346424 22.298667 0.000000 0.000000 0.000000 0.830429 -0.100383 6.328372 -18.286747 -6.557049 1.861637 -43.577707 13.030778 19.831072 0.941517 -43.236822 3.364772 0.000000 0.000000 0.000000 -3.381244 0.927348 5.734632 26.656929 5.488085 5.964140 46.139345 -18.883952 14.806646 -4.120178 36.013081 -2.825893 0.000000 0.000000 0.000000 
-3.292625 36.150021 0.412107 179.886009 -2.538318 179.886351 -0.396321 -2.598394 15.920515 -2.273834 -5.416468 -14.931403 2.735560 3.204573 13.301934 1.074609 -0.112318 5.641553 0.000000 0.000000 0.000000 4.846607 -1.837561 15.861866 -4.996765 7.633946 -17.764087 -4.244995 6.828188 17.772885 13.323672 1.683515 2.685112 0.000000 0.000000 0.000000 2.022576 0.644583 2.426442 1.623054 -0.886982 -15.496801 -0.520916 -3.050796 7.840706 -0.006319 0.031033 -0.022493 -0.856146 -0.814219 9.438463 -1.019747 3.315352 22.207696 0.000000 0.000000 0.000000 0.858898 -0.237689 6.198659 -18.297809 -6.362276 1.901350 -43.707931 13.088686 19.608100 0.798348 -43.240309 3.488481 0.000000 0.000000 0.000000 -3.307097 0.939396 5.722816 26.661199 5.575189 5.962310 46.190934 -18.939867 14.753786 -4.177193 35.924241 -2.889250 0.000000 0.000000 0.000000 
-3.287846 36.151020 0.426339 179.896514 -2.517783 179.844058 -0.392387 -2.543421 15.895566 -2.273945 -5.429734 -14.875489 2.737247 3.199452 13.342512 1.069271 -0.105442 5.660339 0.000000 0.000000 0.000000 4.852687 -1.895414 15.841676 -5.002265 7.635889 -17.760942 -4.239606 6.846335 17.840418 13.385268 1.744179 2.690737 0.000000 0.000000 0.000000 2.055924 0.620702 2.458155 1.602669 -0.868439 -15.387129 -0.494314 -3.030734 7.835586 -0.000268 0.014718 -0.097163 -0.832533 -0.818523 9.482533 -0.931806 3.276237 22.081544 0.000000 0.000000 0.000000 0.900653 -0.140951 6.295890 -18.291586 -6.551923 1.940394 -43.823918 13.084207 19.456170 0.822941 -43.228127 3.437971 0.000000 0.000000 0.000000 -3.295180 0.928761 5.741104 26.620966 5.608636 6.007271 46.281679 -18.980186 14.577049 -4.201003 35.873332 -2.909814 0.000000 0.000000 0.000000 
-3.275388 36.152592 0.444408 179.935159 -2.532196 179.874753 -0.362927 -2.581595 15.853721 -2.257706 -5.395601 -14.878906 2.692099 2.992509 13.237596 1.124405 -0.050583 5.689853 0.000000 0.000000 0.000000 4.890343 -1.927718 15.793834 -4.974249 7.628935 -17.801379 -4.223297 6.830400 17.849842 13.389566 1.751744 2.713519 0.000000 0.000000 0.000000 2.084958 0.616249 2.446641 1.607570 -0.857570 -15.284987 -0.450750 -3.023421 7.790454 0.020178 0.016840 -0.040891 -0.845558 -0.787586 9.441175 -0.857608 3.204976 21.884531 0.000000 0.000000 0.000000 0.873063 -0.118920 6.255682 -18.260635 -6.633862 1.925692 -43.918325 13.105291 19.260256 0.730279 -43.167670 3.514225 0.000000 0.000000 0.000000 -3.317529 0.913858 5.671780 26.557649 5.649507 6.036514 46.374884 -19.009477 14.496467 -4.292038 35.832764 -3.001678 0.000000 0.000000 0.000000 
-3.260467 36.154251 0.469813 179.907715 -2.560264 179.911254 -0.355034 -2.566504 15.831834 -2.261969 -5.545384 -14.889401 2.749504 2.993856 13.084187 1.141497 -0.038578 5.827390 0.000000 0.000000 0.000000 4.878870 -1.913957 15.749282 -4.971397 7.549738 -17.853872 -4.179170 6.704423 17.850995 13.426445 1.820425 2.774418 0.000000 0.000000 0.000000 2.117456 0.568219 2.448582 1.590000 -0.859369 -15.185616 -0.481187 -3.019579 7.749639 -0.012166 0.006197 -0.046918 -0.823558 -0.789009 9.435392 -0.772909 3.010055 21.616400 0.000000 0.000000 0.000000 0.896513 -0.036319 6.240368 -18.182426 -6.690414 1.935552 -44.043348 13.125994 19.148408 0.653171 -43.111280 3.552567 0.000000 0.000000 0.000000 -3.288841 1.007122 5.669179 26.483611 5.771121 6.153164 46.440116 -18.951553 14.571840 -4.402648 35.837442 -3.109687 0.000000 0.000000 0.000000 
-3.229540 36.156891 0.502651 179.954748 -2.531467 179.810877 -0.257998 -2.432579 15.874656 -2.232331 -5.686457 -14.858942 2.779315 2.822500 12.925459 1.171511 -0.035678 5.925703 0.000000 0.000000 0.000000 4.928050 -1.892534 15.751483 -4.900452 7.516411 -17.854441 -4.142018 6.611476 17.927607 13.419203 1.865713 2.798102 0.000000 0.000000 0.000000 2.168276 0.604722 2.580294 1.629769 -0.819680 -14.990185 -0.452240 -2.982207 7.620405 0.002466 0.021539 0.007239 -0.844795 -0.743493 9.380338 -0.672459 3.003696 21.277248 0.000000 0.000000 0.000000 0.860749 -0.036419 6.145880 -18.033747 -6.801417 1.931347 -44.117824 13.209640 18.928604 0.657247 -43.048715 3.500337 0.000000 0.000000 0.000000 -3.302130 1.041986 5.554837 26.374147 5.726171 6.012558 46.452765 -19.118739 14.661167 -4.358784 35.855642 -3.090161 0.000000 0.000000 0.000000 
